<?xml version="1.0" encoding="UTF-8"?>
<!DOCTYPE svg PUBLIC "-//W3C//DTD SVG 1.1//EN" "http://www.w3.org/Graphics/SVG/1.1/DTD/svg11.dtd">
<svg xmlns="http://www.w3.org/2000/svg" version="1.1" width="273px" height="273px" style="shape-rendering:geometricPrecision; text-rendering:geometricPrecision; image-rendering:optimizeQuality; fill-rule:evenodd; clip-rule:evenodd" xmlns:xlink="http://www.w3.org/1999/xlink">
<g><path style="opacity:1" fill="#a9c7ec" d="M 150.5,18.5 C 155.429,20.7748 160.096,23.4415 164.5,26.5C 158.832,25.5071 154.165,22.8404 150.5,18.5 Z"/></g>
<g><path style="opacity:0.675" fill="#b5ccf6" d="M 115.5,24.5 C 114.064,26.083 112.398,27.583 110.5,29C 109.207,29.49 107.873,29.6567 106.5,29.5C 109.22,27.4735 112.22,25.8068 115.5,24.5 Z"/></g>
<g><path style="opacity:1" fill="#1f8dfb" d="M 133.5,16.5 C 141.664,15.7653 148.331,18.432 153.5,24.5C 152.94,27.9962 150.94,29.6629 147.5,29.5C 147.662,31.5273 147.495,33.5273 147,35.5C 144.342,34.306 143.176,35.306 143.5,38.5C 139.486,38.3345 135.486,38.5012 131.5,39C 129.934,39.6082 128.6,40.4415 127.5,41.5C 123.782,43.1962 120.115,45.1962 116.5,47.5C 116.643,45.7376 116.309,44.0709 115.5,42.5C 117.167,41.5 118.5,40.1667 119.5,38.5C 115.796,37.631 113.129,35.4644 111.5,32C 113.392,31.0266 115.392,30.3599 117.5,30C 118.636,28.4702 119.636,27.1369 120.5,26C 119.095,24.7308 117.429,24.2308 115.5,24.5C 120.986,20.7584 126.986,18.0917 133.5,16.5 Z"/></g>
<g><path style="opacity:0.004" fill="#e0ebf5" d="M 164.5,26.5 C 169.372,28.4288 173.705,31.0955 177.5,34.5C 174.55,33.6916 171.883,32.3582 169.5,30.5C 167.174,29.8553 165.507,28.522 164.5,26.5 Z"/></g>
<g><path style="opacity:0.745" fill="#d4e5fa" d="M 106.5,29.5 C 106.027,30.9063 105.027,31.573 103.5,31.5C 103.973,30.0937 104.973,29.427 106.5,29.5 Z"/></g>
<g><path style="opacity:0.816" fill="#cbdcfa" d="M 99.5,33.5 C 99.0269,34.9063 98.0269,35.573 96.5,35.5C 96.9731,34.0937 97.9731,33.427 99.5,33.5 Z"/></g>
<g><path style="opacity:0.004" fill="#eef3f9" d="M 177.5,34.5 C 179.674,34.7497 181.341,35.7497 182.5,37.5C 180.326,37.2503 178.659,36.2503 177.5,34.5 Z"/></g>
<g><path style="opacity:1" fill="#3299f9" d="M 133.5,16.5 C 139.399,14.8856 145.065,15.5523 150.5,18.5C 154.165,22.8404 158.832,25.5071 164.5,26.5C 165.507,28.522 167.174,29.8553 169.5,30.5C 171.016,34.0459 173.349,36.8792 176.5,39C 175.577,41.0408 175.244,43.2075 175.5,45.5C 173.339,45.8258 171.506,46.8258 170,48.5C 168.16,47.1669 167.66,47.3335 168.5,49C 167.584,49.3742 166.75,49.8742 166,50.5C 164.599,48.8078 162.766,48.1412 160.5,48.5C 156.085,45.9604 151.418,43.9604 146.5,42.5C 144.901,42.7678 143.568,42.4345 142.5,41.5C 137.653,40.3814 132.653,40.3814 127.5,41.5C 128.6,40.4415 129.934,39.6082 131.5,39C 135.486,38.5012 139.486,38.3345 143.5,38.5C 143.176,35.306 144.342,34.306 147,35.5C 147.495,33.5273 147.662,31.5273 147.5,29.5C 150.94,29.6629 152.94,27.9962 153.5,24.5C 148.331,18.432 141.664,15.7653 133.5,16.5 Z"/></g>
<g><path style="opacity:0.992" fill="#90b3f7" d="M 92.5,37.5 C 91.656,39.7593 89.9893,40.7593 87.5,40.5C 88.8993,39.1103 90.5659,38.1103 92.5,37.5 Z"/></g>
<g><path style="opacity:1" fill="#2280fa" d="M 92.5,37.5 C 92.8333,37.5 93.1667,37.5 93.5,37.5C 99.1686,38.9643 104.835,40.4643 110.5,42C 111.167,42.6667 111.833,43.3333 112.5,44C 110.444,44.3108 108.444,44.8108 106.5,45.5C 102.873,43.6197 99.2067,42.953 95.5,43.5C 94.2258,44.3594 94.3925,45.0261 96,45.5C 99.1692,46.1815 102.003,47.5148 104.5,49.5C 102.922,50.2978 101.256,50.7978 99.5,51C 99.9574,51.414 100.291,51.914 100.5,52.5C 99.2723,54.321 97.6056,55.321 95.5,55.5C 95.5,56.5 95.5,57.5 95.5,58.5C 88.6981,62.7376 81.6981,66.7376 74.5,70.5C 74.3832,68.5165 75.0499,66.8498 76.5,65.5C 75.8333,64.5 75.1667,63.5 74.5,62.5C 75.9479,61.6461 77.2813,60.6461 78.5,59.5C 80.4109,62.1798 82.0776,62.0131 83.5,59C 82.7894,57.7453 81.956,56.5786 81,55.5C 79.8904,57.0368 78.3904,57.7035 76.5,57.5C 76.67,56.1779 76.3366,55.0113 75.5,54C 77.9645,51.7485 80.6311,49.7485 83.5,48C 81.3225,46.7978 78.9892,46.2978 76.5,46.5C 77.5137,45.3263 78.847,44.6596 80.5,44.5C 82.0269,44.573 83.0269,43.9063 83.5,42.5C 84.5137,41.3263 85.847,40.6596 87.5,40.5C 89.9893,40.7593 91.656,39.7593 92.5,37.5 Z"/></g>
<g><path style="opacity:0.804" fill="#cbdcf7" d="M 83.5,42.5 C 83.0269,43.9063 82.0269,44.573 80.5,44.5C 80.9731,43.0937 81.9731,42.427 83.5,42.5 Z"/></g>
<g><path style="opacity:1" fill="#27a0f9" d="M 169.5,30.5 C 171.883,32.3582 174.55,33.6916 177.5,34.5C 178.659,36.2503 180.326,37.2503 182.5,37.5C 184.674,37.7497 186.341,38.7497 187.5,40.5C 191.072,43.6329 195.072,46.2996 199.5,48.5C 199.351,49.552 199.517,50.552 200,51.5C 203.436,52.0998 205.269,54.0998 205.5,57.5C 201.759,56.5985 199.759,57.9319 199.5,61.5C 196.833,61.5 194.167,61.5 191.5,61.5C 191.912,63.9726 190.912,65.3059 188.5,65.5C 183.817,63.1373 179.15,60.8039 174.5,58.5C 174.027,57.0937 173.027,56.427 171.5,56.5C 169.66,54.3311 167.326,52.9977 164.5,52.5C 163.167,51.1667 161.833,49.8333 160.5,48.5C 162.766,48.1412 164.599,48.8078 166,50.5C 166.75,49.8742 167.584,49.3742 168.5,49C 167.66,47.3335 168.16,47.1669 170,48.5C 171.506,46.8258 173.339,45.8258 175.5,45.5C 175.244,43.2075 175.577,41.0408 176.5,39C 173.349,36.8792 171.016,34.0459 169.5,30.5 Z"/></g>
<g><path style="opacity:1" fill="#2286f8" d="M 115.5,24.5 C 117.429,24.2308 119.095,24.7308 120.5,26C 119.636,27.1369 118.636,28.4702 117.5,30C 115.392,30.3599 113.392,31.0266 111.5,32C 113.129,35.4644 115.796,37.631 119.5,38.5C 118.5,40.1667 117.167,41.5 115.5,42.5C 116.309,44.0709 116.643,45.7376 116.5,47.5C 109.703,51.6493 102.703,55.316 95.5,58.5C 95.5,57.5 95.5,56.5 95.5,55.5C 97.6056,55.321 99.2723,54.321 100.5,52.5C 100.291,51.914 99.9574,51.414 99.5,51C 101.256,50.7978 102.922,50.2978 104.5,49.5C 102.003,47.5148 99.1692,46.1815 96,45.5C 94.3925,45.0261 94.2258,44.3594 95.5,43.5C 99.2067,42.953 102.873,43.6197 106.5,45.5C 108.444,44.8108 110.444,44.3108 112.5,44C 111.833,43.3333 111.167,42.6667 110.5,42C 104.835,40.4643 99.1686,38.9643 93.5,37.5C 93.9731,36.0937 94.9731,35.427 96.5,35.5C 98.0269,35.573 99.0269,34.9063 99.5,33.5C 100.514,32.3263 101.847,31.6596 103.5,31.5C 105.027,31.573 106.027,30.9063 106.5,29.5C 107.873,29.6567 109.207,29.49 110.5,29C 112.398,27.583 114.064,26.083 115.5,24.5 Z"/></g>
<g><path style="opacity:0.537" fill="#c6dbf0" d="M 187.5,40.5 C 192.5,42.6643 197.167,45.331 201.5,48.5C 200.833,48.5 200.167,48.5 199.5,48.5C 195.072,46.2996 191.072,43.6329 187.5,40.5 Z"/></g>
<g><path style="opacity:0.227" fill="#eaf0f7" d="M 146.5,42.5 C 151.418,43.9604 156.085,45.9604 160.5,48.5C 161.833,49.8333 163.167,51.1667 164.5,52.5C 158.17,49.6704 152.17,46.337 146.5,42.5 Z"/></g>
<g><path style="opacity:0.088" fill="#e6eefb" d="M 74.5,47.5 C 73.3406,49.2503 71.674,50.2503 69.5,50.5C 70.6594,48.7497 72.326,47.7497 74.5,47.5 Z"/></g>
<g><path style="opacity:0.267" fill="#d9e3f0" d="M 142.5,41.5 C 136.655,41.151 130.988,41.9843 125.5,44C 106.408,54.4775 87.4082,65.1442 68.5,76C 67.5494,76.7175 67.3828,77.5509 68,78.5C 70.6877,80.364 73.1877,82.364 75.5,84.5C 75.1667,84.5 74.8333,84.5 74.5,84.5C 70.9485,82.8892 67.9485,80.5558 65.5,77.5C 68.3492,74.9163 71.3492,72.583 74.5,70.5C 81.6981,66.7376 88.6981,62.7376 95.5,58.5C 102.703,55.316 109.703,51.6493 116.5,47.5C 120.115,45.1962 123.782,43.1962 127.5,41.5C 132.653,40.3814 137.653,40.3814 142.5,41.5 Z"/></g>
<g><path style="opacity:0.416" fill="#bccef6" d="M 68.5,51.5 C 67.3406,53.2503 65.674,54.2503 63.5,54.5C 64.6594,52.7497 66.326,51.7497 68.5,51.5 Z"/></g>
<g><path style="opacity:0.427" fill="#dce8f2" d="M 164.5,52.5 C 167.326,52.9977 169.66,54.3311 171.5,56.5C 168.669,55.9213 166.336,54.588 164.5,52.5 Z"/></g>
<g><path style="opacity:0.82" fill="#b5ccf8" d="M 63.5,54.5 C 63.0269,55.9063 62.0269,56.573 60.5,56.5C 60.9731,55.0937 61.9731,54.427 63.5,54.5 Z"/></g>
<g><path style="opacity:0.325" fill="#e3edf5" d="M 201.5,48.5 C 207.005,50.7487 212.005,53.7487 216.5,57.5C 210.995,55.2513 205.995,52.2513 201.5,48.5 Z"/></g>
<g><path style="opacity:0.243" fill="#edf2f8" d="M 171.5,56.5 C 173.027,56.427 174.027,57.0937 174.5,58.5C 172.973,58.573 171.973,57.9063 171.5,56.5 Z"/></g>
<g><path style="opacity:1" fill="#33a8f5" d="M 199.5,48.5 C 200.167,48.5 200.833,48.5 201.5,48.5C 205.995,52.2513 210.995,55.2513 216.5,57.5C 219.167,58.5 219.167,59.5 216.5,60.5C 211.11,63.7103 206.11,67.5436 201.5,72C 199.803,72.3845 198.137,72.2178 196.5,71.5C 195.508,71.6716 194.842,71.3382 194.5,70.5C 194.027,69.0937 193.027,68.427 191.5,68.5C 190.694,67.2719 189.694,66.2719 188.5,65.5C 190.912,65.3059 191.912,63.9726 191.5,61.5C 194.167,61.5 196.833,61.5 199.5,61.5C 199.759,57.9319 201.759,56.5985 205.5,57.5C 205.269,54.0998 203.436,52.0998 200,51.5C 199.517,50.552 199.351,49.552 199.5,48.5 Z"/></g>
<g><path style="opacity:0.894" fill="#a8bcf7" d="M 57.5,57.5 C 57.5,57.8333 57.5,58.1667 57.5,58.5C 56.3951,59.6005 55.0618,60.2671 53.5,60.5C 54.2623,58.7376 55.5956,57.7376 57.5,57.5 Z"/></g>
<g><path style="opacity:0.235" fill="#ecf2f7" d="M 174.5,58.5 C 179.15,60.8039 183.817,63.1373 188.5,65.5C 189.694,66.2719 190.694,67.2719 191.5,68.5C 185.332,65.9196 179.665,62.5863 174.5,58.5 Z"/></g>
<g><path style="opacity:0.051" fill="#ecf1f5" d="M 216.5,60.5 C 212.028,64.8012 207.361,68.9679 202.5,73C 200.011,73.9411 198.011,73.4411 196.5,71.5C 198.137,72.2178 199.803,72.3845 201.5,72C 206.11,67.5436 211.11,63.7103 216.5,60.5 Z"/></g>
<g><path style="opacity:0.831" fill="#bfd2fa" d="M 47.5,63.5 C 47.0269,64.9063 46.0269,65.573 44.5,65.5C 44.9731,64.0937 45.9731,63.427 47.5,63.5 Z"/></g>
<g><path style="opacity:0.906" fill="#a1bcf5" d="M 42.5,66.5 C 42.0269,67.9063 41.0269,68.573 39.5,68.5C 39.9731,67.0937 40.9731,66.427 42.5,66.5 Z"/></g>
<g><path style="opacity:0.271" fill="#eef2f6" d="M 191.5,68.5 C 193.027,68.427 194.027,69.0937 194.5,70.5C 192.973,70.573 191.973,69.9063 191.5,68.5 Z"/></g>
<g><path style="opacity:0.757" fill="#d0ddfa" d="M 31.5,72.5 C 31.0269,73.9063 30.0269,74.573 28.5,74.5C 28.9731,73.0937 29.9731,72.427 31.5,72.5 Z"/></g>
<g><path style="opacity:0.482" fill="#e7ecf5" d="M 28.5,74.5 C 28.369,75.2389 28.5357,75.9056 29,76.5C 31.352,78.0303 33.5187,79.6969 35.5,81.5C 31.9687,80.3029 28.9687,78.3029 26.5,75.5C 26.9569,74.7025 27.6236,74.3691 28.5,74.5 Z"/></g>
<g><path style="opacity:1" fill="#31b3f9" d="M 239.5,156.5 C 239.666,164.84 239.5,173.173 239,181.5C 238.105,184.951 236.938,188.284 235.5,191.5C 227.703,197.622 219.37,202.956 210.5,207.5C 207.274,206.02 203.941,204.353 200.5,202.5C 202.413,201.949 204.413,201.782 206.5,202C 209.207,198.65 208.207,196.983 203.5,197C 201.267,194.093 198.267,192.926 194.5,193.5C 199.127,190.851 203.793,188.184 208.5,185.5C 211.167,184.833 212.833,183.167 213.5,180.5C 214.167,179.167 214.833,177.833 215.5,176.5C 217.093,175.652 218.26,174.319 219,172.5C 220.131,166.888 220.631,161.221 220.5,155.5C 221.833,154.167 221.833,152.833 220.5,151.5C 220.5,133.833 220.5,116.167 220.5,98.5C 221.167,113.672 221.833,129.005 222.5,144.5C 223.167,144.167 223.833,143.833 224.5,143.5C 225.5,135.5 226.5,127.5 227.5,119.5C 225.993,105.877 225.159,92.2106 225,78.5C 224.667,79.1667 224.333,79.8333 224,80.5C 222.363,79.1671 221.529,77.8337 221.5,76.5C 219.929,77.3094 218.262,77.6427 216.5,77.5C 216.953,76.5416 217.619,75.7083 218.5,75C 225.234,71.3008 232.234,68.1341 239.5,65.5C 239.5,95.8333 239.5,126.167 239.5,156.5 Z"/></g>
<g><path style="opacity:1" fill="#1b71f9" d="M 57.5,58.5 C 61.2415,61.9287 65.9082,65.262 71.5,68.5C 69.3153,71.6783 66.3153,73.6783 62.5,74.5C 59.8975,77.364 59.8975,80.1973 62.5,83C 64.3668,83.7112 65.8668,83.2112 67,81.5C 70.1667,82.6667 70.3333,84.1667 67.5,86C 75.3375,85.4711 75.3375,86.9711 67.5,90.5C 68.6405,91.4255 68.6405,92.2588 67.5,93C 68.6872,94.0195 69.6872,95.1861 70.5,96.5C 68.2573,97.4742 65.924,97.8076 63.5,97.5C 62.8333,97.5 62.1667,97.5 61.5,97.5C 57.0054,93.7487 52.0054,90.7487 46.5,88.5C 43.3495,85.4208 39.6829,83.0875 35.5,81.5C 33.5187,79.6969 31.352,78.0303 29,76.5C 28.5357,75.9056 28.369,75.2389 28.5,74.5C 30.0269,74.573 31.0269,73.9063 31.5,72.5C 33.8485,70.659 36.5152,69.3257 39.5,68.5C 41.0269,68.573 42.0269,67.9063 42.5,66.5C 42.8417,65.6618 43.5084,65.3284 44.5,65.5C 46.0269,65.573 47.0269,64.9063 47.5,63.5C 49.2504,62.1302 51.2504,61.1302 53.5,60.5C 55.0618,60.2671 56.3951,59.6005 57.5,58.5 Z"/></g>
<g><path style="opacity:0.216" fill="#ebeff7" d="M 35.5,81.5 C 39.6829,83.0875 43.3495,85.4208 46.5,88.5C 42.3171,86.9125 38.6505,84.5792 35.5,81.5 Z"/></g>
<g><path style="opacity:0.004" fill="#eaeff6" d="M 75.5,84.5 C 77.0269,84.427 78.0269,85.0937 78.5,86.5C 76.9731,86.573 75.9731,85.9063 75.5,84.5 Z"/></g>
<g><path style="opacity:0.78" fill="#d3e9fa" d="M 195.5,88.5 C 195.027,89.9063 194.027,90.573 192.5,90.5C 192.973,89.0937 193.973,88.427 195.5,88.5 Z"/></g>
<g><path style="opacity:1" fill="#1f7af9" d="M 76.5,46.5 C 78.9892,46.2978 81.3225,46.7978 83.5,48C 80.6311,49.7485 77.9645,51.7485 75.5,54C 76.3366,55.0113 76.67,56.1779 76.5,57.5C 78.3904,57.7035 79.8904,57.0368 81,55.5C 81.956,56.5786 82.7894,57.7453 83.5,59C 82.0776,62.0131 80.4109,62.1798 78.5,59.5C 77.2813,60.6461 75.9479,61.6461 74.5,62.5C 75.1667,63.5 75.8333,64.5 76.5,65.5C 75.0499,66.8498 74.3832,68.5165 74.5,70.5C 71.3492,72.583 68.3492,74.9163 65.5,77.5C 67.9485,80.5558 70.9485,82.8892 74.5,84.5C 74.5394,85.5832 74.8728,86.5832 75.5,87.5C 78.7705,89.7159 81.9371,92.0492 85,94.5C 85.3747,97.0001 86.2081,99.3334 87.5,101.5C 85.9936,102.747 84.4936,102.747 83,101.5C 81.3181,102.865 81.1514,104.365 82.5,106C 81.7562,107.039 80.7562,107.539 79.5,107.5C 75.7283,105.066 71.7283,103.066 67.5,101.5C 66.2905,101.068 65.2905,100.401 64.5,99.5C 64.1667,98.8333 63.8333,98.1667 63.5,97.5C 65.924,97.8076 68.2573,97.4742 70.5,96.5C 69.6872,95.1861 68.6872,94.0195 67.5,93C 68.6405,92.2588 68.6405,91.4255 67.5,90.5C 75.3375,86.9711 75.3375,85.4711 67.5,86C 70.3333,84.1667 70.1667,82.6667 67,81.5C 65.8668,83.2112 64.3668,83.7112 62.5,83C 59.8975,80.1973 59.8975,77.364 62.5,74.5C 66.3153,73.6783 69.3153,71.6783 71.5,68.5C 65.9082,65.262 61.2415,61.9287 57.5,58.5C 57.5,58.1667 57.5,57.8333 57.5,57.5C 58.209,56.596 59.209,56.2627 60.5,56.5C 62.0269,56.573 63.0269,55.9063 63.5,54.5C 65.674,54.2503 67.3406,53.2503 68.5,51.5C 68.5,50.8333 68.8333,50.5 69.5,50.5C 71.674,50.2503 73.3406,49.2503 74.5,47.5C 74.8417,46.6618 75.5084,46.3284 76.5,46.5 Z"/></g>
<g><path style="opacity:0.251" fill="#e8eef6" d="M 78.5,86.5 C 84.0054,88.7487 89.0054,91.7487 93.5,95.5C 87.9946,93.2513 82.9946,90.2513 78.5,86.5 Z"/></g>
<g><path style="opacity:0.082" fill="#eaeff7" d="M 46.5,88.5 C 52.0054,90.7487 57.0054,93.7487 61.5,97.5C 55.9946,95.2513 50.9946,92.2513 46.5,88.5 Z"/></g>
<g><path style="opacity:0.043" fill="#fefffe" d="M 272.5,94.5 C 272.5,95.1667 272.5,95.8333 272.5,96.5C 271.167,95.8333 271.167,95.1667 272.5,94.5 Z"/></g>
<g><path style="opacity:1" fill="#2eaffb" d="M 220.5,98.5 C 217.505,95.8258 214.838,96.1591 212.5,99.5C 208.948,100.276 205.614,101.609 202.5,103.5C 202.369,98.2917 204.702,96.6251 209.5,98.5C 210.386,97.675 210.719,96.675 210.5,95.5C 207.079,95.7616 206.079,94.4283 207.5,91.5C 206.91,90.2011 205.91,89.3678 204.5,89C 201.546,89.5607 198.546,89.394 195.5,88.5C 202.051,84.0573 209.051,80.3906 216.5,77.5C 218.262,77.6427 219.929,77.3094 221.5,76.5C 221.529,77.8337 222.363,79.1671 224,80.5C 224.333,79.8333 224.667,79.1667 225,78.5C 225.159,92.2106 225.993,105.877 227.5,119.5C 226.5,127.5 225.5,135.5 224.5,143.5C 223.833,143.833 223.167,144.167 222.5,144.5C 221.833,129.005 221.167,113.672 220.5,98.5 Z"/></g>
<g><path style="opacity:0.004" fill="#d4dff0" d="M 93.5,95.5 C 95.8816,96.3507 97.8816,97.684 99.5,99.5C 96.733,99.1298 94.733,97.7964 93.5,95.5 Z"/></g>
<g><path style="opacity:0.063" fill="#f6fafd" d="M 220.5,98.5 C 220.5,116.167 220.5,133.833 220.5,151.5C 220.5,152.833 220.5,154.167 220.5,155.5C 220.631,161.221 220.131,166.888 219,172.5C 218.26,174.319 217.093,175.652 215.5,176.5C 215.892,174.821 216.392,173.154 217,171.5C 218.19,147.509 218.524,123.509 218,99.5C 217.667,98.8333 217.333,98.1667 217,97.5C 215.67,98.5822 214.17,99.2488 212.5,99.5C 214.838,96.1591 217.505,95.8258 220.5,98.5 Z"/></g>
<g><path style="opacity:0.529" fill="#c5d0e6" d="M 37.5,97.5 C 40.2406,97.7073 42.5739,98.7073 44.5,100.5C 44.1667,100.5 43.8333,100.5 43.5,100.5C 41.1815,100.008 39.1815,99.0075 37.5,97.5 Z"/></g>
<g><path style="opacity:0.333" fill="#e5ebf5" d="M 61.5,97.5 C 62.1667,97.5 62.8333,97.5 63.5,97.5C 63.8333,98.1667 64.1667,98.8333 64.5,99.5C 62.9731,99.573 61.9731,98.9063 61.5,97.5 Z"/></g>
<g><path style="opacity:0.773" fill="#add0f9" d="M 179.5,97.5 C 178.064,99.083 176.398,100.583 174.5,102C 173.207,102.49 171.873,102.657 170.5,102.5C 173.22,100.473 176.22,98.8068 179.5,97.5 Z"/></g>
<g><path style="opacity:1" fill="#0c6ffb" d="M 37.5,97.5 C 39.1815,99.0075 41.1815,100.008 43.5,100.5C 43.5,101.5 43.5,102.5 43.5,103.5C 41.8967,103.312 40.5634,103.812 39.5,105C 42.5399,105.32 45.5399,105.32 48.5,105C 49.7636,106.861 50.7636,108.861 51.5,111C 50.7809,125.647 50.1142,140.314 49.5,155C 50.4061,158.427 51.0727,161.927 51.5,165.5C 50.4424,170.302 48.7758,174.969 46.5,179.5C 45.8333,178.833 45.1667,178.167 44.5,177.5C 43.2617,180.383 41.9283,183.217 40.5,186C 42.0441,186.29 43.3774,186.956 44.5,188C 43.0267,188.71 42.3601,189.876 42.5,191.5C 41.5,191.5 40.5,191.5 39.5,191.5C 36.8633,189.518 35.53,186.852 35.5,183.5C 34.5087,154.907 34.1754,126.24 34.5,97.5C 35.5,97.5 36.5,97.5 37.5,97.5 Z"/></g>
<g><path style="opacity:0.294" fill="#dee7f1" d="M 99.5,99.5 C 101.027,99.427 102.027,100.094 102.5,101.5C 100.973,101.573 99.9731,100.906 99.5,99.5 Z"/></g>
<g><path style="opacity:0.047" fill="#e3eaf5" d="M 46.5,101.5 C 48.8984,101.259 50.8984,101.926 52.5,103.5C 50.1016,103.741 48.1016,103.074 46.5,101.5 Z"/></g>
<g><path style="opacity:1" fill="#1981f7" d="M 74.5,84.5 C 74.8333,84.5 75.1667,84.5 75.5,84.5C 75.9731,85.9063 76.9731,86.573 78.5,86.5C 82.9946,90.2513 87.9946,93.2513 93.5,95.5C 94.733,97.7964 96.733,99.1298 99.5,99.5C 99.9731,100.906 100.973,101.573 102.5,101.5C 103.945,103.063 105.611,104.396 107.5,105.5C 108.5,115.167 104.167,119.5 94.5,118.5C 89.6776,114.589 84.6776,110.922 79.5,107.5C 80.7562,107.539 81.7562,107.039 82.5,106C 81.1514,104.365 81.3181,102.865 83,101.5C 84.4936,102.747 85.9936,102.747 87.5,101.5C 86.2081,99.3334 85.3747,97.0001 85,94.5C 81.9371,92.0492 78.7705,89.7159 75.5,87.5C 74.8728,86.5832 74.5394,85.5832 74.5,84.5 Z"/></g>
<g><path style="opacity:0.012" fill="#eef2f7" d="M 102.5,101.5 C 105.204,101.67 106.871,103.003 107.5,105.5C 105.611,104.396 103.945,103.063 102.5,101.5 Z"/></g>
<g><path style="opacity:0.812" fill="#c8e2f9" d="M 170.5,102.5 C 170.027,103.906 169.027,104.573 167.5,104.5C 167.973,103.094 168.973,102.427 170.5,102.5 Z"/></g>
<g><path style="opacity:1" fill="#2ea4f8" d="M 195.5,88.5 C 198.546,89.394 201.546,89.5607 204.5,89C 205.91,89.3678 206.91,90.2011 207.5,91.5C 206.079,94.4283 207.079,95.7616 210.5,95.5C 210.719,96.675 210.386,97.675 209.5,98.5C 204.702,96.6251 202.369,98.2917 202.5,103.5C 200.611,104.604 198.945,105.937 197.5,107.5C 194.454,107.725 192.121,109.058 190.5,111.5C 186.756,111.928 183.756,113.595 181.5,116.5C 178.966,116.259 177.3,117.259 176.5,119.5C 176.158,120.338 175.492,120.672 174.5,120.5C 170.633,120.758 166.966,120.092 163.5,118.5C 163.277,116.658 162.943,114.825 162.5,113C 163.418,110.914 164.085,108.747 164.5,106.5C 166.179,106.715 167.179,106.048 167.5,104.5C 169.027,104.573 170.027,103.906 170.5,102.5C 171.873,102.657 173.207,102.49 174.5,102C 176.398,100.583 178.064,99.083 179.5,97.5C 183.596,94.7393 187.93,92.406 192.5,90.5C 194.027,90.573 195.027,89.9063 195.5,88.5 Z"/></g>
<g><path style="opacity:0.208" fill="#dce9f2" d="M 212.5,99.5 C 207.984,102.927 202.984,105.593 197.5,107.5C 198.945,105.937 200.611,104.604 202.5,103.5C 205.614,101.609 208.948,100.276 212.5,99.5 Z"/></g>
<g><path style="opacity:0.302" fill="#dfeaf2" d="M 197.5,107.5 C 195.664,109.588 193.331,110.921 190.5,111.5C 192.121,109.058 194.454,107.725 197.5,107.5 Z"/></g>
<g><path style="opacity:0.724" fill="#cde3f8" d="M 167.5,104.5 C 167.179,106.048 166.179,106.715 164.5,106.5C 164.085,108.747 163.418,110.914 162.5,113C 162.943,114.825 163.277,116.658 163.5,118.5C 159.533,114.451 159.533,110.285 163.5,106C 164.745,105.209 166.078,104.709 167.5,104.5 Z"/></g>
<g><path style="opacity:0.216" fill="#e2ecf4" d="M 190.5,111.5 C 187.992,113.924 184.992,115.59 181.5,116.5C 183.756,113.595 186.756,111.928 190.5,111.5 Z"/></g>
<g><path style="opacity:0.329" fill="#e4ebf5" d="M 67.5,101.5 C 71.7283,103.066 75.7283,105.066 79.5,107.5C 84.6776,110.922 89.6776,114.589 94.5,118.5C 84.986,113.58 75.986,107.914 67.5,101.5 Z"/></g>
<g><path style="opacity:0.09" fill="#e6edf4" d="M 142.5,117.5 C 148.036,119.041 151.036,122.707 151.5,128.5C 149.632,123.96 146.632,120.293 142.5,117.5 Z"/></g>
<g><path style="opacity:0.043" fill="#dbe7f1" d="M 181.5,116.5 C 180.341,118.25 178.674,119.25 176.5,119.5C 177.3,117.259 178.966,116.259 181.5,116.5 Z"/></g>
<g><path style="opacity:0.051" fill="#d7e1ef" d="M 107.5,105.5 C 108.339,106.641 109.006,107.974 109.5,109.5C 108.683,115.843 105.183,119.509 99,120.5C 97.124,120.475 95.624,119.809 94.5,118.5C 104.167,119.5 108.5,115.167 107.5,105.5 Z"/></g>
<g><path style="opacity:0.875" fill="#c2d8ec" d="M 163.5,118.5 C 166.966,120.092 170.633,120.758 174.5,120.5C 170.261,123.454 166.595,122.787 163.5,118.5 Z"/></g>
<g><path style="opacity:1" fill="#1f92f9" d="M 142.5,117.5 C 146.632,120.293 149.632,123.96 151.5,128.5C 151.453,131.568 150.953,134.568 150,137.5C 147.638,141.027 144.804,144.027 141.5,146.5C 136.308,146.909 131.308,146.242 126.5,144.5C 125.527,142.851 124.527,141.184 123.5,139.5C 122.217,134.675 122.217,130.175 123.5,126C 124.905,123.191 126.572,120.691 128.5,118.5C 132.97,117.514 137.637,117.181 142.5,117.5 Z"/></g>
<g><path style="opacity:0.344" fill="#f8fafe" d="M 33.5,97.5 C 33.5,126.167 33.5,154.833 33.5,183.5C 32.71,182.391 32.21,181.058 32,179.5C 31.1639,151.983 31.6639,124.65 33.5,97.5 Z"/></g>
<g><path style="opacity:1" fill="#66a5f7" d="M 128.5,118.5 C 126.572,120.691 124.905,123.191 123.5,126C 122.217,130.175 122.217,134.675 123.5,139.5C 121.201,134.763 120.868,129.763 122.5,124.5C 123.5,121.5 125.5,119.5 128.5,118.5 Z"/></g>
<g><path style="opacity:1" fill="#2672dd" d="M 52.5,104.5 C 53.4972,124.66 53.8305,144.993 53.5,165.5C 52.0877,161.079 51.421,156.412 51.5,151.5C 52.3629,135.845 52.6963,120.179 52.5,104.5 Z"/></g>
<g><path style="opacity:0.1" fill="#e9f2fb" d="M 122.5,124.5 C 120.868,129.763 121.201,134.763 123.5,139.5C 124.527,141.184 125.527,142.851 126.5,144.5C 118.984,139.019 117.651,132.352 122.5,124.5 Z"/></g>
<g><path style="opacity:0.153" fill="#dfe8f1" d="M 151.5,128.5 C 153.043,137.009 149.71,143.009 141.5,146.5C 144.804,144.027 147.638,141.027 150,137.5C 150.953,134.568 151.453,131.568 151.5,128.5 Z"/></g>
<g><path style="opacity:0.038" fill="#eef3f8" d="M 126.5,144.5 C 131.308,146.242 136.308,146.909 141.5,146.5C 137.752,148.966 133.752,149.133 129.5,147C 128.058,146.623 127.058,145.79 126.5,144.5 Z"/></g>
<g><path style="opacity:0.036" fill="#f2f6fa" d="M 144.5,171.5 C 145.664,198.997 145.83,226.664 145,254.5C 144.586,254.957 144.086,255.291 143.5,255.5C 139.917,254.22 136.917,252.22 134.5,249.5C 136.67,250.749 139.004,251.749 141.5,252.5C 142.442,252.392 143.275,252.059 144,251.5C 144.5,245.175 144.666,238.842 144.5,232.5C 144.5,212.167 144.5,191.833 144.5,171.5 Z"/></g>
<g><path style="opacity:0.906" fill="#649df5" d="M 37.5,97.5 C 36.5,97.5 35.5,97.5 34.5,97.5C 34.1754,126.24 34.5087,154.907 35.5,183.5C 34.8333,183.5 34.1667,183.5 33.5,183.5C 33.5,154.833 33.5,126.167 33.5,97.5C 34.8333,96.1667 36.1667,96.1667 37.5,97.5 Z"/></g>
<g><path style="opacity:0.82" fill="#b9d8f8" d="M 131.5,165.5 C 130.075,166.922 129.075,168.589 128.5,170.5C 127.833,181.167 127.167,191.833 126.5,202.5C 126.783,192.8 126.449,183.133 125.5,173.5C 125.662,169.351 127.662,166.684 131.5,165.5 Z"/></g>
<g><path style="opacity:0.322" fill="#d6deed" d="M 52.5,104.5 C 52.5,104.167 52.5,103.833 52.5,103.5C 53.7498,103.577 54.5831,104.244 55,105.5C 55.7195,122.676 55.5528,139.843 54.5,157C 54.1886,164.458 56.0219,171.291 60,177.5C 64.4799,182.827 69.6465,187.16 75.5,190.5C 66.9898,186.989 60.3231,181.322 55.5,173.5C 54.6295,170.888 53.9628,168.221 53.5,165.5C 53.8305,144.993 53.4972,124.66 52.5,104.5 Z"/></g>
<g><path style="opacity:1" fill="#1b94fb" d="M 131.5,165.5 C 134.167,165.5 136.833,165.5 139.5,165.5C 139.5,166.167 139.833,166.5 140.5,166.5C 142.526,174.335 143.026,182.335 142,190.5C 141.667,185.833 141.333,181.167 141,176.5C 141.051,193.567 140.217,210.567 138.5,227.5C 138.598,230.566 139.598,233.233 141.5,235.5C 142.331,240.466 142.664,245.466 142.5,250.5C 140.284,250.725 138.617,249.892 137.5,248C 141.223,247.566 141.39,246.732 138,245.5C 136.433,246.856 134.6,247.523 132.5,247.5C 130.95,246.559 129.284,245.893 127.5,245.5C 126.508,245.672 125.842,245.338 125.5,244.5C 124.167,243.167 122.833,241.833 121.5,240.5C 123.401,240.567 125.234,240.233 127,239.5C 128.169,240.009 129.002,240.842 129.5,242C 130.635,242.749 131.635,242.583 132.5,241.5C 132.291,240.914 131.957,240.414 131.5,240C 133.388,236.347 134.388,232.347 134.5,228C 134.657,225.148 133.49,222.982 131,221.5C 130.667,221.833 130.333,222.167 130,222.5C 129.289,220.633 129.789,219.133 131.5,218C 129.519,217.395 129.185,216.395 130.5,215C 129.915,213.698 129.249,212.531 128.5,211.5C 128.5,197.833 128.5,184.167 128.5,170.5C 129.075,168.589 130.075,166.922 131.5,165.5 Z"/></g>
<g><path style="opacity:1" fill="#1375f9" d="M 43.5,100.5 C 43.8333,100.5 44.1667,100.5 44.5,100.5C 45.4916,100.328 46.1583,100.662 46.5,101.5C 48.1016,103.074 50.1016,103.741 52.5,103.5C 52.5,103.833 52.5,104.167 52.5,104.5C 52.6963,120.179 52.3629,135.845 51.5,151.5C 51.421,156.412 52.0877,161.079 53.5,165.5C 53.9628,168.221 54.6295,170.888 55.5,173.5C 55.3059,176.33 54.6392,178.996 53.5,181.5C 55.1439,181.714 56.6439,181.38 58,180.5C 57.9813,182.107 57.8146,183.774 57.5,185.5C 59.1439,185.714 60.6439,185.38 62,184.5C 65.029,187.428 68.529,189.428 72.5,190.5C 73.3867,192.937 74.22,195.27 75,197.5C 72.874,199.377 70.374,200.377 67.5,200.5C 67.062,204.908 69.062,206.575 73.5,205.5C 73.33,206.822 73.6634,207.989 74.5,209C 73.8333,209.333 73.1667,209.667 72.5,210C 70.2413,209.561 67.908,209.061 65.5,208.5C 58.5542,204.691 51.5542,200.858 44.5,197C 42.6997,195.188 41.0331,193.355 39.5,191.5C 40.5,191.5 41.5,191.5 42.5,191.5C 42.3601,189.876 43.0267,188.71 44.5,188C 43.3774,186.956 42.0441,186.29 40.5,186C 41.9283,183.217 43.2617,180.383 44.5,177.5C 45.1667,178.167 45.8333,178.833 46.5,179.5C 48.7758,174.969 50.4424,170.302 51.5,165.5C 51.0727,161.927 50.4061,158.427 49.5,155C 50.1142,140.314 50.7809,125.647 51.5,111C 50.7636,108.861 49.7636,106.861 48.5,105C 45.5399,105.32 42.5399,105.32 39.5,105C 40.5634,103.812 41.8967,103.312 43.5,103.5C 43.5,102.5 43.5,101.5 43.5,100.5 Z"/></g>
<g><path style="opacity:0.91" fill="#5dacf6" d="M 128.5,170.5 C 128.5,184.167 128.5,197.833 128.5,211.5C 129.01,214.388 128.344,216.721 126.5,218.5C 126.5,217.833 126.5,217.167 126.5,216.5C 126.109,211.925 126.109,207.259 126.5,202.5C 127.167,191.833 127.833,181.167 128.5,170.5 Z"/></g>
<g><path style="opacity:0.553" fill="#dbeffc" d="M 213.5,180.5 C 212.833,183.167 211.167,184.833 208.5,185.5C 209.833,183.5 211.5,181.833 213.5,180.5 Z"/></g>
<g><path style="opacity:0.065" fill="#eaf0f4" d="M 239.5,156.5 C 240.657,164.99 240.824,173.657 240,182.5C 239.528,186.11 238.028,189.11 235.5,191.5C 236.938,188.284 238.105,184.951 239,181.5C 239.5,173.173 239.666,164.84 239.5,156.5 Z"/></g>
<g><path style="opacity:0.539" fill="#baccdd" d="M 139.5,165.5 C 143.009,165.808 144.676,167.808 144.5,171.5C 144.5,191.833 144.5,212.167 144.5,232.5C 143.668,211.671 143.168,190.671 143,169.5C 142.623,168.058 141.79,167.058 140.5,166.5C 139.833,166.5 139.5,166.167 139.5,165.5 Z"/></g>
<g><path style="opacity:1" fill="#a8bee9" d="M 77.5,191.5 C 83.3392,194.585 89.0058,197.918 94.5,201.5C 94.5,201.833 94.5,202.167 94.5,202.5C 90.8645,200.015 86.8645,198.015 82.5,196.5C 81.0699,194.614 79.4032,192.947 77.5,191.5 Z"/></g>
<g><path style="opacity:0.075" fill="#e3eaf6" d="M 33.5,183.5 C 34.1667,183.5 34.8333,183.5 35.5,183.5C 35.53,186.852 36.8633,189.518 39.5,191.5C 41.0331,193.355 42.6997,195.188 44.5,197C 51.5542,200.858 58.5542,204.691 65.5,208.5C 67.1392,209.473 68.4726,210.806 69.5,212.5C 60.7264,207.944 52.0597,203.111 43.5,198C 38.3286,194.346 34.9953,189.513 33.5,183.5 Z"/></g>
<g><path style="opacity:0.165" fill="#dcebf3" d="M 235.5,191.5 C 234.457,194.056 232.79,196.223 230.5,198C 223.766,202.366 216.766,206.199 209.5,209.5C 209.833,208.833 210.167,208.167 210.5,207.5C 219.37,202.956 227.703,197.622 235.5,191.5 Z"/></g>
<g><path style="opacity:1" fill="#177ff9" d="M 55.5,173.5 C 60.3231,181.322 66.9898,186.989 75.5,190.5C 76.4916,190.328 77.1583,190.662 77.5,191.5C 79.4032,192.947 81.0699,194.614 82.5,196.5C 82.6427,198.262 82.3094,199.929 81.5,201.5C 82.7757,202.645 84.109,202.645 85.5,201.5C 85.8333,201.833 86.1667,202.167 86.5,202.5C 83.7709,204.367 84.1043,205.367 87.5,205.5C 87.6751,208.329 86.3418,209.996 83.5,210.5C 85.0777,211.298 86.7444,211.798 88.5,212C 84.5837,217.157 80.2503,217.657 75.5,213.5C 73.5466,212.844 71.5466,212.511 69.5,212.5C 68.4726,210.806 67.1392,209.473 65.5,208.5C 67.908,209.061 70.2413,209.561 72.5,210C 73.1667,209.667 73.8333,209.333 74.5,209C 73.6634,207.989 73.33,206.822 73.5,205.5C 69.062,206.575 67.062,204.908 67.5,200.5C 70.374,200.377 72.874,199.377 75,197.5C 74.22,195.27 73.3867,192.937 72.5,190.5C 68.529,189.428 65.029,187.428 62,184.5C 60.6439,185.38 59.1439,185.714 57.5,185.5C 57.8146,183.774 57.9813,182.107 58,180.5C 56.6439,181.38 55.1439,181.714 53.5,181.5C 54.6392,178.996 55.3059,176.33 55.5,173.5 Z"/></g>
<g><path style="opacity:1" fill="#9ac8f8" d="M 183.5,200.5 C 180.822,201.625 178.488,203.292 176.5,205.5C 175.311,206.429 173.978,206.762 172.5,206.5C 175.194,202.824 178.861,200.824 183.5,200.5 Z"/></g>
<g><path style="opacity:1" fill="#2aa5fa" d="M 194.5,193.5 C 198.267,192.926 201.267,194.093 203.5,197C 208.207,196.983 209.207,198.65 206.5,202C 204.413,201.782 202.413,201.949 200.5,202.5C 203.941,204.353 207.274,206.02 210.5,207.5C 210.167,208.167 209.833,208.833 209.5,209.5C 209.158,210.338 208.492,210.672 207.5,210.5C 204.669,211.079 202.336,212.412 200.5,214.5C 200.158,215.338 199.492,215.672 198.5,215.5C 196.973,215.427 195.973,216.094 195.5,217.5C 192.687,217.025 190.687,218.025 189.5,220.5C 187.345,220.372 185.345,220.872 183.5,222C 178.262,226.117 172.596,229.45 166.5,232C 164.382,233.049 162.716,234.549 161.5,236.5C 160.5,236.5 159.5,236.5 158.5,236.5C 158.662,234.473 158.495,232.473 158,230.5C 157.617,229.944 157.117,229.611 156.5,229.5C 156.5,228.5 156.5,227.5 156.5,226.5C 156.493,223.962 156.159,221.462 155.5,219C 156.074,217.393 156.74,215.893 157.5,214.5C 158.29,213.599 159.29,212.932 160.5,212.5C 163.157,212.065 165.491,211.065 167.5,209.5C 168.401,207.273 170.067,206.273 172.5,206.5C 173.978,206.762 175.311,206.429 176.5,205.5C 178.488,203.292 180.822,201.625 183.5,200.5C 186.894,197.779 190.561,195.446 194.5,193.5 Z"/></g>
<g><path style="opacity:0.275" fill="#e5ecf5" d="M 94.5,202.5 C 94.5,202.167 94.5,201.833 94.5,201.5C 100.005,203.749 105.005,206.749 109.5,210.5C 104.368,208.1 99.3682,205.434 94.5,202.5 Z"/></g>
<g><path style="opacity:1" fill="#1c90f9" d="M 128.5,211.5 C 129.249,212.531 129.915,213.698 130.5,215C 129.185,216.395 129.519,217.395 131.5,218C 129.789,219.133 129.289,220.633 130,222.5C 130.333,222.167 130.667,221.833 131,221.5C 133.49,222.982 134.657,225.148 134.5,228C 134.388,232.347 133.388,236.347 131.5,240C 131.957,240.414 132.291,240.914 132.5,241.5C 131.635,242.583 130.635,242.749 129.5,242C 129.002,240.842 128.169,240.009 127,239.5C 125.234,240.233 123.401,240.567 121.5,240.5C 112.674,236.59 104.341,231.923 96.5,226.5C 100.163,225.888 103.83,225.721 107.5,226C 111.713,230.505 116.047,230.505 120.5,226C 118.833,225.667 117.167,225.333 115.5,225C 116.328,224.085 117.328,223.419 118.5,223C 117.577,220.959 117.244,218.792 117.5,216.5C 116.209,216.737 115.209,216.404 114.5,215.5C 115.833,215.5 117.167,215.5 118.5,215.5C 120.481,218.841 123.148,219.841 126.5,218.5C 128.344,216.721 129.01,214.388 128.5,211.5 Z"/></g>
<g><path style="opacity:0.733" fill="#c5def5" d="M 167.5,209.5 C 165.491,211.065 163.157,212.065 160.5,212.5C 162.32,210.552 164.654,209.552 167.5,209.5 Z"/></g>
<g><path style="opacity:0.227" fill="#e9f0f5" d="M 207.5,210.5 C 205.664,212.588 203.331,213.921 200.5,214.5C 202.336,212.412 204.669,211.079 207.5,210.5 Z"/></g>
<g><path style="opacity:1" fill="#a6c0eb" d="M 109.5,210.5 C 112.76,211.774 115.76,213.44 118.5,215.5C 117.167,215.5 115.833,215.5 114.5,215.5C 112.438,214.235 110.771,212.569 109.5,210.5 Z"/></g>
<g><path style="opacity:0.231" fill="#edf2f8" d="M 73.5,214.5 C 75.0269,214.427 76.0269,215.094 76.5,216.5C 74.9731,216.573 73.9731,215.906 73.5,214.5 Z"/></g>
<g><path style="opacity:1" fill="#1b89f9" d="M 82.5,196.5 C 86.8645,198.015 90.8645,200.015 94.5,202.5C 99.3682,205.434 104.368,208.1 109.5,210.5C 110.771,212.569 112.438,214.235 114.5,215.5C 115.209,216.404 116.209,216.737 117.5,216.5C 117.244,218.792 117.577,220.959 118.5,223C 117.328,223.419 116.328,224.085 115.5,225C 117.167,225.333 118.833,225.667 120.5,226C 116.047,230.505 111.713,230.505 107.5,226C 103.83,225.721 100.163,225.888 96.5,226.5C 95.1667,226.167 93.8333,225.833 92.5,225.5C 90.6644,223.412 88.3311,222.079 85.5,221.5C 85.0269,220.094 84.0269,219.427 82.5,219.5C 80.1815,219.008 78.1815,218.008 76.5,216.5C 76.0269,215.094 75.0269,214.427 73.5,214.5C 71.847,214.34 70.5137,213.674 69.5,212.5C 71.5466,212.511 73.5466,212.844 75.5,213.5C 80.2503,217.657 84.5837,217.157 88.5,212C 86.7444,211.798 85.0777,211.298 83.5,210.5C 86.3418,209.996 87.6751,208.329 87.5,205.5C 84.1043,205.367 83.7709,204.367 86.5,202.5C 86.1667,202.167 85.8333,201.833 85.5,201.5C 84.109,202.645 82.7757,202.645 81.5,201.5C 82.3094,199.929 82.6427,198.262 82.5,196.5 Z"/></g>
<g><path style="opacity:0.008" fill="#f5f8fa" d="M 198.5,215.5 C 198.027,216.906 197.027,217.573 195.5,217.5C 195.973,216.094 196.973,215.427 198.5,215.5 Z"/></g>
<g><path style="opacity:0.016" fill="#e6eef6" d="M 118.5,215.5 C 120.156,216.146 121.823,216.813 123.5,217.5C 124.584,217.315 125.584,216.982 126.5,216.5C 126.5,217.167 126.5,217.833 126.5,218.5C 123.148,219.841 120.481,218.841 118.5,215.5 Z"/></g>
<g><path style="opacity:0.373" fill="#d8e6f2" d="M 195.5,217.5 C 193.819,219.008 191.819,220.008 189.5,220.5C 190.687,218.025 192.687,217.025 195.5,217.5 Z"/></g>
<g><path style="opacity:0.31" fill="#e6ecf6" d="M 82.5,219.5 C 84.0269,219.427 85.0269,220.094 85.5,221.5C 83.9731,221.573 82.9731,220.906 82.5,219.5 Z"/></g>
<g><path style="opacity:0.055" fill="#e2effa" d="M 157.5,214.5 C 156.74,215.893 156.074,217.393 155.5,219C 156.159,221.462 156.493,223.962 156.5,226.5C 153.861,223.701 153.028,220.368 154,216.5C 155.113,215.695 156.279,215.028 157.5,214.5 Z"/></g>
<g><path style="opacity:0.106" fill="#edf2f8" d="M 85.5,221.5 C 88.3311,222.079 90.6644,223.412 92.5,225.5C 89.6689,224.921 87.3356,223.588 85.5,221.5 Z"/></g>
<g><path style="opacity:1" fill="#2f95ee" d="M 140.5,166.5 C 141.79,167.058 142.623,168.058 143,169.5C 143.168,190.671 143.668,211.671 144.5,232.5C 144.666,238.842 144.5,245.175 144,251.5C 143.275,252.059 142.442,252.392 141.5,252.5C 139.004,251.749 136.67,250.749 134.5,249.5C 133.508,249.672 132.842,249.338 132.5,248.5C 132.5,248.167 132.5,247.833 132.5,247.5C 134.6,247.523 136.433,246.856 138,245.5C 141.39,246.732 141.223,247.566 137.5,248C 138.617,249.892 140.284,250.725 142.5,250.5C 142.664,245.466 142.331,240.466 141.5,235.5C 139.598,233.233 138.598,230.566 138.5,227.5C 140.217,210.567 141.051,193.567 141,176.5C 141.333,181.167 141.667,185.833 142,190.5C 143.026,182.335 142.526,174.335 140.5,166.5 Z"/></g>
<g><path style="opacity:0.247" fill="#cfe1f0" d="M 189.5,220.5 C 180.5,226.336 171.167,231.669 161.5,236.5C 162.716,234.549 164.382,233.049 166.5,232C 172.596,229.45 178.262,226.117 183.5,222C 185.345,220.872 187.345,220.372 189.5,220.5 Z"/></g>
<g><path style="opacity:0.069" fill="#e6edf6" d="M 92.5,225.5 C 93.8333,225.833 95.1667,226.167 96.5,226.5C 104.341,231.923 112.674,236.59 121.5,240.5C 122.833,241.833 124.167,243.167 125.5,244.5C 114.002,238.921 103.002,232.588 92.5,225.5 Z"/></g>
<g><path style="opacity:0.4" fill="#ebf4fb" d="M 156.5,229.5 C 157.117,229.611 157.617,229.944 158,230.5C 158.495,232.473 158.662,234.473 158.5,236.5C 159.5,236.5 160.5,236.5 161.5,236.5C 160.48,237.954 159.313,238.287 158,237.5C 157.178,234.883 156.678,232.216 156.5,229.5 Z"/></g>
<g><path style="opacity:0.255" fill="#e1ebf4" d="M 127.5,245.5 C 129.284,245.893 130.95,246.559 132.5,247.5C 132.5,247.833 132.5,248.167 132.5,248.5C 130.326,248.25 128.659,247.25 127.5,245.5 Z"/></g>
</svg>
